# xmcd
#
# Track frame offsets: 
#        150
#        17037
#        31655
#        46458
#        60993
#        76040
#        97208
#        118663
#        147635
#        175855
#        192313
#
# Disc length: 2860 seconds
#
# Revision: 0
# Processed by: cddbd v1.5.2PL0 Copyright (c) Steve Scherf et al.
# Submitted via: ExactAudioCopy v0.99pb5
#
DISCID=8e0b2a0b
DTITLE=Lorenz and Die Band - All Size
DYEAR=1996
DGENRE=Blues
TTITLE0=I Live The Life I Love
TTITLE1=I Ain't Lyin'
TTITLE2=If You Love Me
TTITLE3=Don't Set Me Free
TTITLE4=Seventh Son
TTITLE5=All Night Worker
TTITLE6=I Got The Music In Me
TTITLE7=Blues As Blues Can Get
TTITLE8=90% Of Me Is You
TTITLE9=I Want To Know
TTITLE10=Thank You
EXTD=
EXTT0=
EXTT1=
EXTT2=
EXTT3=
EXTT4=
EXTT5=
EXTT6=
EXTT7=
EXTT8=
EXTT9=
EXTT10=
PLAYORDER=
